<svg height="512" width="512" xmlns="http://www.w3.org/2000/svg"><g fill="#607f75"><path d="M258.773 181.506H66.789a7.5 7.5 0 000 14.998h191.985a7.5 7.5 0 10-.001-14.998zm0 52.696H66.789a7.5 7.5 0 000 14.998h191.985a7.5 7.5 0 10-.001-14.998zm0 52.695H66.789a7.5 7.5 0 000 14.998h191.985a7.5 7.5 0 10-.001-14.998zm7.5 60.196a7.498 7.498 0 00-7.499-7.499H66.789a7.5 7.5 0 000 14.998h191.985a7.498 7.498 0 007.499-7.499zM66.789 416.821a7.5 7.5 0 000 14.998h96.238a7.5 7.5 0 000-14.998zM345.194 92.853V68.519c0-9.27-7.541-16.812-16.812-16.812H174.415c-9.27 0-16.811 7.542-16.811 16.812v24.334c0 9.27 7.541 16.811 16.811 16.811h13.002a7.5 7.5 0 000-14.998h-13.002a1.814 1.814 0 01-1.812-1.812V68.519c0-.999.813-1.813 1.812-1.813h153.967c1 0 1.813.813 1.813 1.813v24.334c0 .999-.813 1.812-1.813 1.812H222.477a7.5 7.5 0 000 14.998h105.906c9.27.002 16.811-7.54 16.811-16.81z"/><path d="M401.268 457.296a7.5 7.5 0 00-7.499 7.499v10.099c0 12.189-9.917 22.107-22.108 22.107H39.899c-12.189 0-22.107-9.917-22.107-22.107V114.428c0-1.623.19-3.215.529-4.764h68.283c14.256 0 25.854-11.598 25.854-25.854V15.528a22.247 22.247 0 014.763-.529H371.66c12.19 0 22.108 9.917 22.108 22.107v99.842a7.5 7.5 0 0014.998 0V37.105C408.767 16.646 392.121 0 371.661 0H117.222c-9.911 0-19.23 3.86-26.238 10.868L13.661 88.191c-7.008 7.008-10.867 16.326-10.867 26.238v360.466c0 20.46 16.645 37.105 37.105 37.105h331.762c20.46 0 37.106-16.646 37.106-37.105v-10.099a7.5 7.5 0 00-7.499-7.5zM97.46 25.604V83.81c0 5.986-4.87 10.856-10.856 10.856H28.398z"/><path d="M503.982 267.999c5.264-7.727 6.626-17.258 3.737-26.15s-9.594-15.802-18.394-18.958c-5.838-2.094-9.733-7.454-9.919-13.654-.283-9.345-4.784-17.857-12.349-23.353-7.563-5.495-17.051-7.144-26.023-4.526-5.958 1.738-12.255-.31-16.051-5.215-5.721-7.395-14.365-11.636-23.715-11.636-9.349 0-17.994 4.241-23.716 11.636-3.796 4.906-10.097 6.951-16.05 5.215-8.973-2.62-18.46-.969-26.025 4.526-7.564 5.496-12.063 14.007-12.347 23.352-.187 6.2-4.081 11.559-9.92 13.654-8.8 3.156-15.505 10.067-18.393 18.958-2.889 8.892-1.527 18.424 3.737 26.15 3.492 5.127 3.492 11.751 0 16.877-5.264 7.727-6.626 17.258-3.737 26.15 2.888 8.892 9.593 15.802 18.393 18.959 5.839 2.095 9.734 7.454 9.92 13.654a29.983 29.983 0 0025.893 28.8v68.278a15.93 15.93 0 008.154 13.895 15.93 15.93 0 0016.107-.341l27.505-16.932c.448-.277.715-.152.962 0l27.503 16.932a15.932 15.932 0 0016.108.34 15.93 15.93 0 008.154-13.895v-68.279a29.98 29.98 0 0025.893-28.799c.186-6.2 4.081-11.56 9.919-13.654 8.801-3.156 15.506-10.067 18.394-18.959 2.889-8.892 1.527-18.423-3.737-26.15-3.496-5.124-3.496-11.748-.003-16.875zm-66.867 173.499l-27.504-16.932a15.917 15.917 0 00-16.687 0l-27.504 16.931a.912.912 0 01-1.399-.782v-69.701c5.156-.597 10.268 1.501 13.531 5.718 5.723 7.394 14.367 11.635 23.717 11.635 9.349 0 17.993-4.241 23.714-11.635 3.264-4.218 8.377-6.315 13.532-5.718v69.701a.913.913 0 01-1.4.783zm54.472-148.176c2.632 3.862 3.312 8.625 1.868 13.069s-4.795 7.898-9.194 9.476c-11.682 4.19-19.472 14.913-19.847 27.318-.133 4.361-2.05 8.292-5.397 11.07-3.763 3.123-8.859 4.301-13.781 2.865-11.913-3.476-24.52.62-32.116 10.434a14.887 14.887 0 01-11.853 5.815 14.89 14.89 0 01-11.854-5.815c-5.799-7.496-14.52-11.656-23.623-11.656a30.28 30.28 0 00-8.49 1.221c-4.97 1.448-10.051.234-13.784-2.865-3.347-2.778-5.264-6.709-5.395-11.069-.376-12.405-8.166-23.128-19.849-27.319a14.89 14.89 0 01-9.193-9.475 14.884 14.884 0 011.868-13.07c6.987-10.257 6.987-23.51 0-33.767a14.886 14.886 0 01-1.868-13.071 14.885 14.885 0 019.193-9.475c11.683-4.191 19.473-14.914 19.849-27.319a14.88 14.88 0 016.17-11.671 14.888 14.888 0 0113.008-2.263c11.91 3.477 24.52-.62 32.114-10.434a14.887 14.887 0 0111.854-5.816c4.673 0 8.993 2.119 11.853 5.815 7.595 9.815 20.199 13.911 32.115 10.435a14.881 14.881 0 0113.007 2.262 14.88 14.88 0 016.171 11.671c.376 12.405 8.166 23.129 19.848 27.319a14.886 14.886 0 019.194 9.475 14.884 14.884 0 01-1.868 13.07c-6.989 10.258-6.989 23.513 0 33.77z"/><path d="M401.268 213.583c-34.658 0-62.854 28.196-62.854 62.854s28.196 62.854 62.854 62.854c34.657 0 62.853-28.196 62.853-62.854s-28.196-62.854-62.853-62.854zm0 110.71c-26.388 0-47.856-21.468-47.856-47.855s21.468-47.856 47.856-47.856 47.855 21.468 47.855 47.856-21.468 47.855-47.855 47.855z"/></g></svg>