<svg xmlns="http://www.w3.org/2000/svg" viewBox="0 0 397.963 397.963"><path d="M363.044 5.362a7.239 7.239 0 00-3.64-4.52 7.241 7.241 0 00-9.786 3.013l-.014.027c0 .2-36.68 71.36-149.28 83.76a143.073 143.073 0 00-42.56 11.36 118.24 118.24 0 00-56.76 52 122.205 122.205 0 00-13.96 71.2 119.674 119.674 0 0017.52 50.48c-20 14.36-83.44 64-89.16 117.28a7.24 7.24 0 0014.4 1.52c5.24-47.56 64.76-93.68 83.32-107.04 22.28 27.36 55.64 42.8 91.44 45.32a154.602 154.602 0 0070.44-12 161.564 161.564 0 0062.08-46.12c42.92-52 63.36-139.4 25.96-266.28zm-245.76 260.16a104.068 104.068 0 01-7.28-13.6 105.598 105.598 0 01-8.4-31.28 107.682 107.682 0 0112-62.8 103.998 103.998 0 0150-45.72 128.797 128.797 0 0138.32-10.04c74.32-8 118.04-41.08 140.6-65.08a306.725 306.725 0 01-66.8 117.48l-4.4-44.32a7.24 7.24 0 10-14.4 1.4l5.64 56.96c-33.64 34.12-80.4 68.4-145.28 97zm208.6-3.16v.04a147.086 147.086 0 01-56.48 42.16 140.01 140.01 0 01-64 10.72 114.44 114.44 0 01-79.4-37.88 545.198 545.198 0 0069.04-36.68l63.56 12a7.24 7.24 0 002.6-14.24l-48.84-9.24a422.2 422.2 0 0062.68-52.68 7.32 7.32 0 00.96-1c50.48-52.56 71.96-104.56 80.92-136.56 24.72 105.44 5.8 178.8-31.04 223.36z" fill="#607f75"/></svg>